<svg width="36" height="36" viewBox="0 0 36 36" fill="none" xmlns="http://www.w3.org/2000/svg">
<path d="M4.97829 9.01029L0 12.4457L1.89257 18L0 23.5543L4.97829 27.0103L6.85029 32.5646H13.0217L18 36L22.9577 32.544H29.1291L31.0011 26.9897L35.9794 23.5337L34.0869 17.9794L35.9794 12.4251L31.0011 8.96914L29.1291 3.41486H22.9577L18 0L13.0423 3.43543H6.87086L4.97829 9.01029ZM24.0891 12.8571C24.2949 12.8366 24.5211 12.8983 24.7063 12.9806C24.8091 13.0217 24.8914 13.0629 24.9943 13.1246C25.0766 13.1863 25.1794 13.248 25.2617 13.3303C25.3851 13.4949 25.5086 13.6594 25.5909 13.8651C25.6731 14.0709 25.7143 14.2766 25.7143 14.4823C25.7143 14.9143 25.5497 15.3463 25.2617 15.6754L17.136 23.9246C17.0537 24.0069 16.9714 24.0891 16.8891 24.1303C16.8069 24.192 16.704 24.2331 16.6423 24.2949C16.5394 24.336 16.4366 24.3771 16.3337 24.3977C16.2309 24.4183 16.128 24.4183 16.0046 24.4183C15.9017 24.4183 15.7989 24.4183 15.696 24.3977C15.5931 24.3771 15.4903 24.336 15.3874 24.2949C15.2846 24.2537 15.1817 24.2126 15.0994 24.1303C15.0171 24.0686 14.9349 24.0069 14.8731 23.9246L10.8 19.8103C10.6354 19.6663 10.512 19.4811 10.4503 19.2754C10.368 19.0697 10.3269 18.864 10.3269 18.6583C10.3269 18.432 10.368 18.2263 10.4503 18.0206C10.5943 17.6091 10.9234 17.28 11.3143 17.1154C11.52 17.0331 11.7257 16.992 11.9314 16.992C12.1371 16.992 12.3429 17.0331 12.5486 17.1154C12.7543 17.1977 12.9394 17.3211 13.0834 17.4857L15.984 20.448L22.9577 13.3509C23.04 13.2686 23.1223 13.1863 23.2251 13.1451C23.3074 13.0629 23.4103 13.0423 23.5131 12.9806C23.616 12.9189 23.6983 12.8983 23.8217 12.8777C23.8834 12.8571 23.9863 12.8571 24.0891 12.8571Z" fill="#37CBA1"/>
</svg>
